<?xml version="1.0" encoding="UTF-8" standalone="no" ?>
<!DOCTYPE svg PUBLIC "-//W3C//DTD SVG 1.1//EN" "http://www.w3.org/Graphics/SVG/1.1/DTD/svg11.dtd">
<svg xmlns="http://www.w3.org/2000/svg" xmlns:xlink="http://www.w3.org/1999/xlink" version="1.1" width="45.870000000000005" height="45.870000000000005" viewBox="-125.8275619834711 221.27987603305786 45.870000000000005 45.870000000000005" xml:space="preserve">
<desc>Created with Fabric.js 4.6.0</desc>
<defs>
</defs>
<g transform="matrix(1 0 0 1 -102.89 244.21)" id="c1xM5QN-WCYJYaKNVf6II"  >
<path style="stroke: none; stroke-width: 1; stroke-dasharray: none; stroke-linecap: butt; stroke-dashoffset: 0; stroke-linejoin: miter; stroke-miterlimit: 4; fill: rgb(255,255,255); fill-rule: nonzero; opacity: 1;" vector-effect="non-scaling-stroke"  transform=" translate(-12.64, -12.97)" d="M 6.85609 0.66061 C 4.6248000000000005 2.09414 3.11642 4.62468 3.11642 7.51658 C 3.11642 10.40858 4.62479 12.93902 6.89345 14.37255 C 3.0665199999999997 14.37255 -0.000010000000000509601 11.30603 -0.000010000000000509601 7.51658 C -0.000010000000000509601 3.7301300000000004 3.0695099999999993 0.6606100000000001 6.855969999999999 0.6606100000000001 M 21.27866 2.53043 L 23.06123 4.313 L 3.6525099999999995 23.721799999999998 L 1.8699399999999995 21.93923 L 21.27866 2.530429999999999 M 13.57503 5.55948 L 11.73014 4.40015 L 9.93515 5.64674 L 10.45871 3.5276600000000005 L 8.72603 2.2063400000000004 L 10.90754 2.05677 L 11.630569999999999 0 L 12.46581 2.03182 L 14.62237 2.0691900000000003 L 12.93948 3.4777700000000005 L 13.57525 5.55949 M 9.46137 10.05954 L 8.01542 9.14957 L 6.619250000000001 10.12185 L 7.043020000000001 8.47644 L 5.684330000000001 7.4418500000000005 L 7.379640000000001 7.32964 L 7.940570000000001 5.721590000000001 L 8.576340000000002 7.304690000000001 L 10.271650000000001 7.342060000000001 L 8.96274 8.42655 L 9.46135 10.059550000000002 M 21.1914 14.99589 C 21.1914 18.782339999999998 18.12188 21.85186 14.335420000000003 21.85186 C 12.814630000000003 21.85186 11.406040000000003 21.35325 10.271660000000002 20.518009999999997 L 19.857660000000003 10.932029999999997 C 20.6929 12.066409999999998 21.19151 13.474989999999998 21.19151 14.995779999999996 M 15.70664 23.19813 L 19.15958 21.764599999999998 L 18.860429999999997 25.940559999999998 L 15.706639999999997 23.19813 M 21.10414 19.83246 L 22.537670000000002 16.379530000000003 L 25.28011 19.545730000000002 L 21.10414 19.83246 M 22.53767 13.64962 L 21.11656 10.184270000000001 L 25.28 10.483420000000002 L 22.53756 13.649620000000002 M 9.51127 21.7646 L 12.96421 23.198130000000003 L 9.81042 25.928030000000003 z" stroke-linecap="round" />
</g>
<g transform="matrix(0.79 0 0 0.79 -102.89 244.21)" id="z99BB-8YCc8JUXZBjVKZs"  >
<path style="stroke: rgb(255,255,255); stroke-width: 4; stroke-dasharray: none; stroke-linecap: butt; stroke-dashoffset: 0; stroke-linejoin: miter; stroke-miterlimit: 4; fill: none; fill-rule: nonzero; opacity: 1;" vector-effect="non-scaling-stroke"  transform=" translate(0, 0)" d="M -26.5 -15.257 C -26.5 -21.46634 -21.46634 -26.5 -15.257 -26.5 L 15.257 -26.5 L 15.257 -26.5 C 21.46634 -26.5 26.5 -21.46634 26.5 -15.257 L 26.5 15.257 L 26.5 15.257 C 26.5 21.46634 21.46634 26.5 15.257 26.5 L -15.257 26.5 L -15.257 26.5 C -21.46634 26.5 -26.5 21.46634 -26.5 15.257 z" stroke-linecap="round" />
</g>
</svg>