<?xml version="1.0" encoding="UTF-8" standalone="no"?>
<svg
   width="907pt"
   height="506pt"
   viewBox="0 0 907 506"
   version="1.1"
   id="svg45"
   sodipodi:docname="mixer-logo.svg"
   inkscape:version="1.1 (c68e22c387, 2021-05-23)"
   xmlns:inkscape="http://www.inkscape.org/namespaces/inkscape"
   xmlns:sodipodi="http://sodipodi.sourceforge.net/DTD/sodipodi-0.dtd"
   xmlns="http://www.w3.org/2000/svg"
   xmlns:svg="http://www.w3.org/2000/svg">
  <defs
     id="defs49" />
  <sodipodi:namedview
     id="namedview47"
     pagecolor="#ffffff"
     bordercolor="#666666"
     borderopacity="1.0"
     inkscape:pageshadow="2"
     inkscape:pageopacity="0.0"
     inkscape:pagecheckerboard="0"
     inkscape:document-units="pt"
     showgrid="false"
     inkscape:zoom="1.2453142"
     inkscape:cx="271.41744"
     inkscape:cy="158.19301"
     inkscape:window-width="3840"
     inkscape:window-height="2066"
     inkscape:window-x="3829"
     inkscape:window-y="-11"
     inkscape:window-maximized="1"
     inkscape:current-layer="svg45" />
  <g
     id="surface3952"
     transform="rotate(-90,253.46951,252.85242)">
    <path
       style="fill:#8fee8f;fill-opacity:1;fill-rule:evenodd;stroke:#000000;stroke-width:0.4;stroke-linecap:butt;stroke-linejoin:round;stroke-miterlimit:10;stroke-opacity:1"
       d="m 355.77677,448.00038 c 0,19.75936 -16.01817,35.77629 -35.77629,35.77629 -19.75936,0 -35.77754,-16.01693 -35.77754,-35.77629 0,-19.75936 16.01818,-35.77754 35.77754,-35.77754 19.75812,0 35.77629,16.01818 35.77629,35.77754 z m 0,0"
       transform="matrix(3.133404,0,0,-3.133404,-749.82353,1857.1684)"
       id="path2" />
    <path
       style="fill:#8fee8f;fill-opacity:1;fill-rule:evenodd;stroke:#000000;stroke-width:0.4;stroke-linecap:butt;stroke-linejoin:round;stroke-miterlimit:10;stroke-opacity:1"
       d="m 271.99956,528.00024 c 0,8.83624 -7.16323,15.99948 -15.99947,15.99948 -8.83624,0 -15.99947,-7.16324 -15.99947,-15.99948 0,-8.83624 7.16323,-16.00072 15.99947,-16.00072 8.83624,0 15.99947,7.16448 15.99947,16.00072 z m 0,0"
       transform="matrix(3.133404,0,0,-3.133404,-749.82353,1857.1684)"
       id="path4" />
    <path
       style="fill:#8fee8f;fill-opacity:1;fill-rule:evenodd;stroke:#000000;stroke-width:0.4;stroke-linecap:butt;stroke-linejoin:round;stroke-miterlimit:10;stroke-opacity:1"
       d="m 400.00034,575.99991 c 0,8.83624 -7.16324,15.99947 -16.00072,15.99947 -8.83624,0 -15.99947,-7.16323 -15.99947,-15.99947 0,-8.83624 7.16323,-15.99947 15.99947,-15.99947 8.83748,0 16.00072,7.16323 16.00072,15.99947 z m 0,0"
       transform="matrix(3.133404,0,0,-3.133404,-749.82353,1857.1684)"
       id="path6" />
    <path
       style="fill:#8fee8f;fill-opacity:1;fill-rule:evenodd;stroke:#000000;stroke-width:0.4;stroke-linecap:butt;stroke-linejoin:round;stroke-miterlimit:10;stroke-opacity:1"
       d="m 271.99956,319.9996 c 0,8.83748 -7.16323,16.00072 -15.99947,16.00072 -8.83624,0 -15.99947,-7.16324 -15.99947,-16.00072 0,-8.83624 7.16323,-15.99947 15.99947,-15.99947 8.83624,0 15.99947,7.16323 15.99947,15.99947 z m 0,0"
       transform="matrix(3.133404,0,0,-3.133404,-749.82353,1857.1684)"
       id="path8" />
    <path
       style="fill:#8fee8f;fill-opacity:1;fill-rule:evenodd;stroke:#000000;stroke-width:0.4;stroke-linecap:butt;stroke-linejoin:round;stroke-miterlimit:10;stroke-opacity:1"
       d="m 400.00034,368.00052 c 0,8.83623 -7.16324,15.99947 -16.00072,15.99947 -8.83624,0 -15.99947,-7.16324 -15.99947,-15.99947 0,-8.83749 7.16323,-16.00073 15.99947,-16.00073 8.83748,0 16.00072,7.16324 16.00072,16.00073 z m 0,0"
       transform="matrix(3.133404,0,0,-3.133404,-749.82353,1857.1684)"
       id="path10" />
    <path
       style="fill:none;stroke:#000000;stroke-width:0.4;stroke-linecap:butt;stroke-linejoin:round;stroke-miterlimit:10;stroke-opacity:1"
       d="m 389.05976,545.37227 c 4.46799,-22.49824 -7.56465,-45.02267 -28.74893,-53.81652"
       transform="matrix(3.133404,0,0,-3.133404,-749.82353,1857.1684)"
       id="path12" />
    <path
       style="fill:none;stroke:#000000;stroke-width:0.4;stroke-linecap:butt;stroke-linejoin:round;stroke-miterlimit:10;stroke-opacity:1"
       d="m 372.38087,551.95831 c 6.5636,-19.76809 -0.25931,-41.5171 -16.93696,-53.99479"
       transform="matrix(3.133404,0,0,-3.133404,-749.82353,1857.1684)"
       id="path14" />
    <path
       style="fill:none;stroke:#000000;stroke-width:0.4;stroke-linecap:butt;stroke-linejoin:round;stroke-miterlimit:10;stroke-opacity:1"
       d="m 366.22991,484.11451 -17.31469,22.14794 -3.84715,-17.72483 21.08081,-4.23861"
       transform="matrix(3.133404,0,0,-3.133404,-749.82353,1857.1684)"
       id="path16" />
    <path
       style="fill:none;stroke:#000000;stroke-width:0.4;stroke-linecap:butt;stroke-linejoin:round;stroke-miterlimit:10;stroke-opacity:1"
       d="m 389.05852,545.37227 -16.67765,6.58604"
       transform="matrix(3.133404,0,0,-3.133404,-749.82353,1857.1684)"
       id="path18" />
    <path
       style="fill:none;stroke:#000000;stroke-width:0.4;stroke-linecap:butt;stroke-linejoin:round;stroke-miterlimit:10;stroke-opacity:1"
       d="m 359.34966,429.31438 c 15.33875,-2.82366 26.55234,-16.083 26.7917,-31.67856"
       transform="matrix(3.133404,0,0,-3.133404,-749.82353,1857.1684)"
       id="path20" />
    <path
       style="fill:none;stroke:#000000;stroke-width:0.4;stroke-linecap:butt;stroke-linejoin:round;stroke-miterlimit:10;stroke-opacity:1"
       d="m 351.00086,420.42952 c 14.13948,-0.81531 26.17087,-10.58778 29.86843,-24.25851"
       transform="matrix(3.133404,0,0,-3.133404,-749.82353,1857.1684)"
       id="path22" />
    <path
       style="fill:none;stroke:#000000;stroke-width:0.4;stroke-linecap:butt;stroke-linejoin:round;stroke-miterlimit:10;stroke-opacity:1"
       d="m 392.32972,399.50953 -18.34317,-5.38178 10.23497,-6.88149 7.97107,12.25828"
       transform="matrix(3.133404,0,0,-3.133404,-749.82353,1857.1684)"
       id="path24" />
    <path
       style="fill:none;stroke:#000000;stroke-width:0.4;stroke-linecap:butt;stroke-linejoin:round;stroke-miterlimit:10;stroke-opacity:1"
       d="m 359.34966,429.31438 -8.3488,-8.8861"
       transform="matrix(3.133404,0,0,-3.133404,-749.82353,1857.1684)"
       id="path26" />
    <path
       style="fill:none;stroke:#000000;stroke-width:0.4;stroke-linecap:butt;stroke-linejoin:round;stroke-miterlimit:10;stroke-opacity:1"
       d="m 281.79821,466.08549 c -15.42227,2.32375 -27.06097,15.2116 -27.80647,30.79095"
       transform="matrix(3.133404,0,0,-3.133404,-749.82353,1857.1684)"
       id="path28" />
    <path
       style="fill:none;stroke:#000000;stroke-width:0.4;stroke-linecap:butt;stroke-linejoin:round;stroke-miterlimit:10;stroke-opacity:1"
       d="m 289.85405,475.23838 c -14.15818,0.35529 -26.50123,9.73008 -30.64135,23.27491"
       transform="matrix(3.133404,0,0,-3.133404,-749.82353,1857.1684)"
       id="path30" />
    <path
       style="fill:none;stroke:#000000;stroke-width:0.4;stroke-linecap:butt;stroke-linejoin:round;stroke-miterlimit:10;stroke-opacity:1"
       d="m 247.86696,494.80327 18.15867,5.97518 -10.45314,6.5449 -7.5684,-12.51011"
       transform="matrix(3.133404,0,0,-3.133404,-749.82353,1857.1684)"
       id="path32" />
    <path
       style="fill:none;stroke:#000000;stroke-width:0.4;stroke-linecap:butt;stroke-linejoin:round;stroke-miterlimit:10;stroke-opacity:1"
       d="m 281.79821,466.08549 8.05584,9.15289"
       transform="matrix(3.133404,0,0,-3.133404,-749.82353,1857.1684)"
       id="path34" />
    <path
       style="fill:none;stroke:#000000;stroke-width:0.4;stroke-linecap:butt;stroke-linejoin:round;stroke-miterlimit:10;stroke-opacity:1"
       d="m 254.52406,342.6811 c -7.87383,22.88845 1.50096,48.15301 22.40101,60.36392"
       transform="matrix(3.133404,0,0,-3.133404,-749.82353,1857.1684)"
       id="path36" />
    <path
       style="fill:none;stroke:#000000;stroke-width:0.4;stroke-linecap:butt;stroke-linejoin:round;stroke-miterlimit:10;stroke-opacity:1"
       d="m 272.90089,338.16824 c -9.67648,19.73568 -5.63859,43.44816 10.02429,58.86919"
       transform="matrix(3.133404,0,0,-3.133404,-749.82353,1857.1684)"
       id="path38" />
    <path
       style="fill:none;stroke:#000000;stroke-width:0.4;stroke-linecap:butt;stroke-linejoin:round;stroke-miterlimit:10;stroke-opacity:1"
       d="m 269.67581,409.98386 21.25659,-20.69435 1.50096,19.08119 -22.6466,1.4324"
       transform="matrix(3.133404,0,0,-3.133404,-749.82353,1857.1684)"
       id="path40" />
    <path
       style="fill:none;stroke:#000000;stroke-width:0.4;stroke-linecap:butt;stroke-linejoin:round;stroke-miterlimit:10;stroke-opacity:1"
       d="m 254.52406,342.6811 18.37558,-4.51161"
       transform="matrix(3.133404,0,0,-3.133404,-749.82353,1857.1684)"
       id="path42" />
  </g>
  <path
     style="fill:#000000;stroke-width:1.20451"
     d="m 789.69014,430.43747 c -3.44587,13.58091 -6.5076,25.36725 -6.80392,26.19187 -0.81975,2.28153 -22.00605,7.20794 -37.03135,8.61083 -30.41033,2.83938 -63.76712,-4.36804 -91.18908,-19.70328 -18.75783,-10.48997 -40.21454,-30.17543 -52.11811,-47.81574 l -6.12279,-9.07358 8.64524,-8.52224 8.64523,-8.52223 7.05608,6.47243 c 21.52113,19.74098 51.88623,33.84598 83.28257,38.68585 14.60836,2.25193 42.40638,1.56758 56.00993,-1.37889 7.7004,-1.66788 27.05475,-7.80996 34.02758,-10.79862 2.6259,-1.12551 2.99692,-3.30461 -4.40138,25.8536 z"
     id="path940" />
  <path
     style="fill:#000000;stroke-width:1.20451"
     d="m 605.70603,375.64749 c -28.9235,29.71014 -29.3359,30.07265 -29.70941,26.11561 -0.40987,-4.3424 3.08933,-59.35602 3.82201,-60.08871 0.24478,-0.24477 12.76897,0.52016 27.83154,1.69985 l 27.38649,2.1449 z"
     id="path979" />
  <path
     style="fill:#000000;stroke-width:1.20451"
     d="m 612.81198,62.454454 c -29.17697,10.13603 -48.98149,26.71529 -61.91143,51.828866 -5.77888,11.22423 -7.17146,15.26819 -9.9018,28.7543 l -2.0198,9.97654 -12.53283,-11.71972 -12.53283,-11.71973 2.23533,-8.26351 c 5.05087,-18.67189 17.96191,-38.404556 33.37033,-51.001766 13.73921,-11.23252 35.58929,-20.27954 54.16649,-22.4276 l 6.83328,-0.79012 1.89945,6.39614 c 2.29058,7.71322 2.3163,8.29873 0.39381,8.9666 z"
     id="path1018" />
  <path
     style="fill:#000000;stroke-width:1.20451"
     d="m 632.53845,67.472804 -9.3595,13.44636 -7.02869,-23.99762 c -3.86578,-13.1987 -6.75636,-24.26997 -6.4235,-24.60282 0.73905,-0.73905 31.47424,19.17134 31.88133,20.65287 0.15942,0.58017 -3.92192,7.10571 -9.06964,14.50121 z"
     id="path1057" />
  <path
     style="fill:#000000;stroke-width:1.20451"
     d="m 331.43441,146.19565 -5.59819,27.12538 -24.99369,-5.37594 c -13.74653,-2.95677 -24.9937,-5.70935 -24.9937,-6.11684 0,-0.63267 43.1423,-34.76324 56.84385,-44.97009 l 4.58643,-3.41661 -0.12325,2.81436 c -0.0678,1.5479 -2.64244,15.02078 -5.72145,29.93974 z"
     id="path1096" />
  <path
     style="fill:#000000;stroke-width:1.20451"
     d="m 307.04116,133.29147 -8.55667,6.77022 -12.82347,-12.9494 C 271.59417,112.90733 259.63809,104.13364 243.58111,96.232954 211.9212,80.655004 174.63942,76.435464 140.642,84.582344 c -5.13425,1.23033 -9.335,1.93075 -9.335,1.55648 0,-0.37426 4.19351,-11.3884 9.31891,-24.47586 l 9.31891,-23.79536 6.64092,-0.95445 c 11.94546,-1.71683 39.52705,-0.96644 50.60572,1.37678 44.54274,9.4211 82.26039,37.50522 102.87188,76.597196 3.04397,5.77323 5.53449,10.75269 5.53449,11.06546 0,0.31277 -3.85049,3.61527 -8.55667,7.33888 z"
     id="path1135" />
  <path
     style="fill:#000000;stroke-width:1.20451"
     d="m 393.87234,382.94761 c -7.20934,28.26401 -26.84552,52.33889 -53.81385,65.97831 -7.88958,3.99021 -24.44904,8.82191 -32.16904,9.38625 l -5.90161,0.43141 -2.22505,-6.52828 c -1.22377,-3.59055 -1.98573,-6.76759 -1.69322,-7.0601 0.29251,-0.29251 4.50691,-2.25987 9.36536,-4.37192 33.54871,-14.5842 57.27181,-46.46967 61.69967,-82.92863 l 0.84245,-6.93673 12.59883,11.03024 c 6.92936,6.06663 12.79478,11.35628 13.03426,11.75479 0.23949,0.3985 -0.54253,4.5586 -1.7378,9.24466 z"
     id="path1174" />
  <path
     style="fill:#000000;stroke-width:1.20451"
     d="m 303.92787,475.00453 c -2.22388,0 -32.96057,-19.78813 -32.66232,-21.02784 0.49209,-2.04534 15.85711,-27.07581 16.64702,-27.1189 0.34146,-0.0186 4.22447,10.80677 8.62891,24.05644 4.40445,13.24966 7.72831,24.0903 7.38639,24.0903 z"
     id="path1213" />
  <text
     xml:space="preserve"
     style="font-style:normal;font-variant:normal;font-weight:normal;font-stretch:normal;font-size:56px;line-height:1.25;font-family:sans-serif;-inkscape-font-specification:'sans-serif, Normal';font-variant-ligatures:normal;font-variant-caps:normal;font-variant-numeric:normal;font-variant-east-asian:normal;fill:#000000;fill-opacity:1;stroke:none;stroke-width:0.75"
     x="32.521915"
     y="71.668663"
     id="text18147"><tspan
       sodipodi:role="line"
       style="font-style:normal;font-variant:normal;font-weight:normal;font-stretch:normal;font-size:56px;font-family:sans-serif;-inkscape-font-specification:'sans-serif, Normal';font-variant-ligatures:normal;font-variant-caps:normal;font-variant-numeric:normal;font-variant-east-asian:normal;stroke-width:0.75"
       x="32.521915"
       y="71.668663"
       id="tspan18941">A</tspan></text>
  <text
     xml:space="preserve"
     style="font-style:normal;font-variant:normal;font-weight:normal;font-stretch:normal;font-size:56px;line-height:1.25;font-family:sans-serif;-inkscape-font-specification:'sans-serif, Normal';font-variant-ligatures:normal;font-variant-caps:normal;font-variant-numeric:normal;font-variant-east-asian:normal;fill:#000000;fill-opacity:1;stroke:none;stroke-width:0.75"
     x="837.87195"
     y="473.25516"
     id="text18147-6"><tspan
       sodipodi:role="line"
       id="tspan22424"
       x="837.87195"
       y="473.25516">B</tspan></text>
  <text
     xml:space="preserve"
     style="font-style:normal;font-variant:normal;font-weight:normal;font-stretch:normal;font-size:56px;line-height:1.25;font-family:sans-serif;-inkscape-font-specification:'sans-serif, Normal';font-variant-ligatures:normal;font-variant-caps:normal;font-variant-numeric:normal;font-variant-east-asian:normal;fill:#000000;fill-opacity:1;stroke:none;stroke-width:0.75"
     x="689.8418"
     y="73.958344"
     id="text18147-6-8"><tspan
       sodipodi:role="line"
       id="tspan22471"
       x="689.8418"
       y="73.958344">?</tspan></text>
  <text
     xml:space="preserve"
     style="font-style:normal;font-variant:normal;font-weight:normal;font-stretch:normal;font-size:56px;line-height:1.25;font-family:sans-serif;-inkscape-font-specification:'sans-serif, Normal';font-variant-ligatures:normal;font-variant-caps:normal;font-variant-numeric:normal;font-variant-east-asian:normal;fill:#000000;fill-opacity:1;stroke:none;stroke-width:0.75"
     x="190.04436"
     y="476.07437"
     id="text18147-6-8-3"><tspan
       sodipodi:role="line"
       id="tspan22471-6"
       x="190.04436"
       y="476.07437">?</tspan></text>
</svg>
