<?xml version="1.0" encoding="UTF-8" standalone="no"?>
<svg
   width="907pt"
   height="506pt"
   viewBox="0 0 907 506"
   version="1.1"
   id="svg45"
   sodipodi:docname="mixer-logo-small.svg"
   inkscape:version="1.1 (c68e22c387, 2021-05-23)"
   xmlns:inkscape="http://www.inkscape.org/namespaces/inkscape"
   xmlns:sodipodi="http://sodipodi.sourceforge.net/DTD/sodipodi-0.dtd"
   xmlns="http://www.w3.org/2000/svg"
   xmlns:svg="http://www.w3.org/2000/svg">
  <defs
     id="defs49" />
  <sodipodi:namedview
     id="namedview47"
     pagecolor="#ffffff"
     bordercolor="#666666"
     borderopacity="1.0"
     inkscape:pageshadow="2"
     inkscape:pageopacity="0.0"
     inkscape:pagecheckerboard="0"
     inkscape:document-units="pt"
     showgrid="false"
     inkscape:zoom="0.6226571"
     inkscape:cx="642.40816"
     inkscape:cy="559.69811"
     inkscape:window-width="1920"
     inkscape:window-height="1137"
     inkscape:window-x="1272"
     inkscape:window-y="-8"
     inkscape:window-maximized="1"
     inkscape:current-layer="svg45" />
  <g
     id="surface3952"
     transform="matrix(0.27990158,0,0,0.27990158,8.3566941,127.6242)">
    <path
       style="fill:#8fee8f;fill-opacity:1;fill-rule:evenodd;stroke:#000000;stroke-width:0.4;stroke-linecap:butt;stroke-linejoin:round;stroke-miterlimit:10;stroke-opacity:1"
       d="m 355.77677,448.00038 c 0,19.75936 -16.01817,35.77629 -35.77629,35.77629 -19.75936,0 -35.77754,-16.01693 -35.77754,-35.77629 0,-19.75936 16.01818,-35.77754 35.77754,-35.77754 19.75812,0 35.77629,16.01818 35.77629,35.77754 z m 0,0"
       transform="matrix(3.133404,0,0,-3.133404,-749.82353,1857.1684)"
       id="path2" />
    <path
       style="fill:#8fee8f;fill-opacity:1;fill-rule:evenodd;stroke:#000000;stroke-width:0.4;stroke-linecap:butt;stroke-linejoin:round;stroke-miterlimit:10;stroke-opacity:1"
       d="m 271.99956,528.00024 c 0,8.83624 -7.16323,15.99948 -15.99947,15.99948 -8.83624,0 -15.99947,-7.16324 -15.99947,-15.99948 0,-8.83624 7.16323,-16.00072 15.99947,-16.00072 8.83624,0 15.99947,7.16448 15.99947,16.00072 z m 0,0"
       transform="matrix(3.133404,0,0,-3.133404,-749.82353,1857.1684)"
       id="path4" />
    <path
       style="fill:#8fee8f;fill-opacity:1;fill-rule:evenodd;stroke:#000000;stroke-width:0.4;stroke-linecap:butt;stroke-linejoin:round;stroke-miterlimit:10;stroke-opacity:1"
       d="m 400.00034,575.99991 c 0,8.83624 -7.16324,15.99947 -16.00072,15.99947 -8.83624,0 -15.99947,-7.16323 -15.99947,-15.99947 0,-8.83624 7.16323,-15.99947 15.99947,-15.99947 8.83748,0 16.00072,7.16323 16.00072,15.99947 z m 0,0"
       transform="matrix(3.133404,0,0,-3.133404,-749.82353,1857.1684)"
       id="path6" />
    <path
       style="fill:#8fee8f;fill-opacity:1;fill-rule:evenodd;stroke:#000000;stroke-width:0.4;stroke-linecap:butt;stroke-linejoin:round;stroke-miterlimit:10;stroke-opacity:1"
       d="m 271.99956,319.9996 c 0,8.83748 -7.16323,16.00072 -15.99947,16.00072 -8.83624,0 -15.99947,-7.16324 -15.99947,-16.00072 0,-8.83624 7.16323,-15.99947 15.99947,-15.99947 8.83624,0 15.99947,7.16323 15.99947,15.99947 z m 0,0"
       transform="matrix(3.133404,0,0,-3.133404,-749.82353,1857.1684)"
       id="path8" />
    <path
       style="fill:#8fee8f;fill-opacity:1;fill-rule:evenodd;stroke:#000000;stroke-width:0.4;stroke-linecap:butt;stroke-linejoin:round;stroke-miterlimit:10;stroke-opacity:1"
       d="m 400.00034,368.00052 c 0,8.83623 -7.16324,15.99947 -16.00072,15.99947 -8.83624,0 -15.99947,-7.16324 -15.99947,-15.99947 0,-8.83749 7.16323,-16.00073 15.99947,-16.00073 8.83748,0 16.00072,7.16324 16.00072,16.00073 z m 0,0"
       transform="matrix(3.133404,0,0,-3.133404,-749.82353,1857.1684)"
       id="path10" />
    <path
       style="fill:none;stroke:#000000;stroke-width:0.4;stroke-linecap:butt;stroke-linejoin:round;stroke-miterlimit:10;stroke-opacity:1"
       d="m 389.05976,545.37227 c 4.46799,-22.49824 -7.56465,-45.02267 -28.74893,-53.81652"
       transform="matrix(3.133404,0,0,-3.133404,-749.82353,1857.1684)"
       id="path12" />
    <path
       style="fill:none;stroke:#000000;stroke-width:0.4;stroke-linecap:butt;stroke-linejoin:round;stroke-miterlimit:10;stroke-opacity:1"
       d="m 372.38087,551.95831 c 6.5636,-19.76809 -0.25931,-41.5171 -16.93696,-53.99479"
       transform="matrix(3.133404,0,0,-3.133404,-749.82353,1857.1684)"
       id="path14" />
    <path
       style="fill:none;stroke:#000000;stroke-width:0.4;stroke-linecap:butt;stroke-linejoin:round;stroke-miterlimit:10;stroke-opacity:1"
       d="m 366.22991,484.11451 -17.31469,22.14794 -3.84715,-17.72483 21.08081,-4.23861"
       transform="matrix(3.133404,0,0,-3.133404,-749.82353,1857.1684)"
       id="path16" />
    <path
       style="fill:none;stroke:#000000;stroke-width:0.4;stroke-linecap:butt;stroke-linejoin:round;stroke-miterlimit:10;stroke-opacity:1"
       d="m 389.05852,545.37227 -16.67765,6.58604"
       transform="matrix(3.133404,0,0,-3.133404,-749.82353,1857.1684)"
       id="path18" />
    <path
       style="fill:none;stroke:#000000;stroke-width:0.4;stroke-linecap:butt;stroke-linejoin:round;stroke-miterlimit:10;stroke-opacity:1"
       d="m 359.34966,429.31438 c 15.33875,-2.82366 26.55234,-16.083 26.7917,-31.67856"
       transform="matrix(3.133404,0,0,-3.133404,-749.82353,1857.1684)"
       id="path20" />
    <path
       style="fill:none;stroke:#000000;stroke-width:0.4;stroke-linecap:butt;stroke-linejoin:round;stroke-miterlimit:10;stroke-opacity:1"
       d="m 351.00086,420.42952 c 14.13948,-0.81531 26.17087,-10.58778 29.86843,-24.25851"
       transform="matrix(3.133404,0,0,-3.133404,-749.82353,1857.1684)"
       id="path22" />
    <path
       style="fill:none;stroke:#000000;stroke-width:0.4;stroke-linecap:butt;stroke-linejoin:round;stroke-miterlimit:10;stroke-opacity:1"
       d="m 392.32972,399.50953 -18.34317,-5.38178 10.23497,-6.88149 7.97107,12.25828"
       transform="matrix(3.133404,0,0,-3.133404,-749.82353,1857.1684)"
       id="path24" />
    <path
       style="fill:none;stroke:#000000;stroke-width:0.4;stroke-linecap:butt;stroke-linejoin:round;stroke-miterlimit:10;stroke-opacity:1"
       d="m 359.34966,429.31438 -8.3488,-8.8861"
       transform="matrix(3.133404,0,0,-3.133404,-749.82353,1857.1684)"
       id="path26" />
    <path
       style="fill:none;stroke:#000000;stroke-width:0.4;stroke-linecap:butt;stroke-linejoin:round;stroke-miterlimit:10;stroke-opacity:1"
       d="m 281.79821,466.08549 c -15.42227,2.32375 -27.06097,15.2116 -27.80647,30.79095"
       transform="matrix(3.133404,0,0,-3.133404,-749.82353,1857.1684)"
       id="path28" />
    <path
       style="fill:none;stroke:#000000;stroke-width:0.4;stroke-linecap:butt;stroke-linejoin:round;stroke-miterlimit:10;stroke-opacity:1"
       d="m 289.85405,475.23838 c -14.15818,0.35529 -26.50123,9.73008 -30.64135,23.27491"
       transform="matrix(3.133404,0,0,-3.133404,-749.82353,1857.1684)"
       id="path30" />
    <path
       style="fill:none;stroke:#000000;stroke-width:0.4;stroke-linecap:butt;stroke-linejoin:round;stroke-miterlimit:10;stroke-opacity:1"
       d="m 247.86696,494.80327 18.15867,5.97518 -10.45314,6.5449 -7.5684,-12.51011"
       transform="matrix(3.133404,0,0,-3.133404,-749.82353,1857.1684)"
       id="path32" />
    <path
       style="fill:none;stroke:#000000;stroke-width:0.4;stroke-linecap:butt;stroke-linejoin:round;stroke-miterlimit:10;stroke-opacity:1"
       d="m 281.79821,466.08549 8.05584,9.15289"
       transform="matrix(3.133404,0,0,-3.133404,-749.82353,1857.1684)"
       id="path34" />
    <path
       style="fill:none;stroke:#000000;stroke-width:0.4;stroke-linecap:butt;stroke-linejoin:round;stroke-miterlimit:10;stroke-opacity:1"
       d="m 254.52406,342.6811 c -7.87383,22.88845 1.50096,48.15301 22.40101,60.36392"
       transform="matrix(3.133404,0,0,-3.133404,-749.82353,1857.1684)"
       id="path36" />
    <path
       style="fill:none;stroke:#000000;stroke-width:0.4;stroke-linecap:butt;stroke-linejoin:round;stroke-miterlimit:10;stroke-opacity:1"
       d="m 272.90089,338.16824 c -9.67648,19.73568 -5.63859,43.44816 10.02429,58.86919"
       transform="matrix(3.133404,0,0,-3.133404,-749.82353,1857.1684)"
       id="path38" />
    <path
       style="fill:none;stroke:#000000;stroke-width:0.4;stroke-linecap:butt;stroke-linejoin:round;stroke-miterlimit:10;stroke-opacity:1"
       d="m 269.67581,409.98386 21.25659,-20.69435 1.50096,19.08119 -22.6466,1.4324"
       transform="matrix(3.133404,0,0,-3.133404,-749.82353,1857.1684)"
       id="path40" />
    <path
       style="fill:none;stroke:#000000;stroke-width:0.4;stroke-linecap:butt;stroke-linejoin:round;stroke-miterlimit:10;stroke-opacity:1"
       d="m 254.52406,342.6811 18.37558,-4.51161"
       transform="matrix(3.133404,0,0,-3.133404,-749.82353,1857.1684)"
       id="path42" />
  </g>
  <path
     style="fill:#000000;stroke-width:0.337146"
     d="m 29.596861,348.48702 c -3.80131,-0.96453 -7.100324,-1.82152 -7.331125,-1.90446 -0.638617,-0.22941 -2.017518,-6.1595 -2.410199,-10.36513 -0.794737,-8.5119 1.222615,-17.84852 5.514991,-25.52398 2.936152,-5.25034 8.446145,-11.25611 13.383681,-14.58794 l 2.539713,-1.71378 2.3854,2.41981 2.385375,2.41982 -1.811636,1.97501 c -5.525529,6.02379 -9.473536,14.52303 -10.828235,23.31094 -0.630311,4.08891 -0.438755,11.86962 0.385969,15.67727 0.466838,2.15538 2.186015,7.57266 3.022542,9.52438 0.315025,0.735 0.924965,0.83884 -7.236476,-1.23194 z"
     id="path940" />
  <path
     style="fill:#000000;stroke-width:0.337146"
     d="m 44.932666,296.98954 c -8.315899,-8.09574 -8.417376,-8.21115 -7.309803,-8.31571 1.215451,-0.11471 16.613851,0.86472 16.818941,1.06981 0.06851,0.0685 -0.145646,3.57404 -0.475805,7.79008 l -0.600355,7.6655 z"
     id="path979" />
  <path
     style="fill:#000000;stroke-width:0.337146"
     d="m 132.59591,298.97852 c -2.83711,-8.1667 -7.47769,-13.71001 -14.50702,-17.32912 -3.14165,-1.61751 -4.27357,-2.00731 -8.04835,-2.77154 l -2.79244,-0.56533 3.28035,-3.50797 3.28037,-3.50794 2.31296,0.62567 c 5.2263,1.41374 10.74951,5.02757 14.27549,9.3404 3.144,3.84563 5.67628,9.9615 6.27754,15.16127 l 0.22109,1.91267 -1.7903,0.53163 c -2.15892,0.64117 -2.32281,0.64838 -2.50975,0.1102 z"
     id="path1018" />
  <path
     style="fill:#000000;stroke-width:0.337146"
     d="m 131.19125,304.49999 -3.76366,-2.61975 6.71697,-1.96735 c 3.69434,-1.08203 6.7932,-1.89111 6.88637,-1.79792 0.20682,0.2068 -5.36608,8.80966 -5.78077,8.9236 -0.16255,0.0445 -1.98891,-1.09774 -4.05891,-2.53858 z"
     id="path1057" />
  <path
     style="fill:#000000;stroke-width:0.337146"
     d="m 109.15659,220.22049 -7.59241,-1.56692 1.50472,-6.99581 c 0.8276,-3.84768 1.59807,-6.99575 1.71212,-6.99575 0.17705,0 9.73027,12.07558 12.58717,15.91065 l 0.95634,1.28376 -0.78774,-0.0345 c -0.43328,-0.0191 -4.20435,-0.7396 -8.3802,-1.60143 z"
     id="path1096" />
  <path
     style="fill:#000000;stroke-width:0.337146"
     d="m 112.7685,213.39276 -1.895,-2.39502 3.62457,-3.58928 c 3.97598,-3.93734 6.43176,-7.28388 8.64317,-11.77827 4.36029,-8.86165 5.54133,-19.29687 3.26102,-28.81279 -0.34439,-1.4371 -0.54041,-2.61288 -0.43568,-2.61288 0.10467,0 3.18764,1.17376 6.85084,2.60836 l 6.66039,2.60836 0.26714,1.85881 c 0.48055,3.34356 0.27052,11.06372 -0.38538,14.16465 -2.63699,12.46758 -10.49777,23.0248 -21.43966,28.79398 -1.61595,0.85203 -3.0097,1.54912 -3.09726,1.54912 -0.0875,0 -1.01189,-1.07775 -2.05415,-2.39504 z"
     id="path1135" />
  <path
     style="fill:#000000;stroke-width:0.337146"
     d="m 42.889345,237.69697 c -7.911123,-2.01792 -14.64973,-7.51411 -18.467414,-15.06258 -1.116877,-2.20832 -2.469268,-6.84333 -2.62722,-9.00419 l -0.120661,-1.65185 1.827272,-0.62279 c 1.005,-0.34253 1.894266,-0.55583 1.976134,-0.47393 0.08187,0.0818 0.632524,1.26148 1.223709,2.62137 4.082137,9.39034 13.006925,16.03047 23.211844,17.26983 l 1.941609,0.23585 -3.087397,3.52643 c -1.69804,1.93954 -3.178643,3.58127 -3.290182,3.64831 -0.111615,0.0668 -1.275954,-0.15183 -2.587596,-0.48639 z"
     id="path1174" />
  <path
     style="fill:#000000;stroke-width:0.337146"
     d="m 17.122483,212.52134 c 0,-0.62245 5.538717,-9.22571 5.885727,-9.1422 0.572481,0.13779 7.578562,4.43843 7.590628,4.65951 0.0047,0.0956 -3.024851,1.18245 -6.733443,2.41525 -3.708613,1.23282 -6.742912,2.16316 -6.742912,2.06744 z"
     id="path1213" />
  <text
     xml:space="preserve"
     style="font-size:171.351px;line-height:1.25;font-family:sans-serif;stroke-width:1.78491"
     x="205.72462"
     y="307.79291"
     id="text32453"><tspan
       sodipodi:role="line"
       id="tspan32451"
       style="stroke-width:1.78491"
       x="205.72462"
       y="307.79291">CardMix</tspan></text>
</svg>
